<svg xmlns="http://www.w3.org/2000/svg" viewBox="0 0 511.999 511.999" style="enable-background:new 0 0 511.999 511.999" xml:space="preserve"><path style="fill:#f2ca5a" d="M258.547 394.083c-5.399 1.084-10.623 2.174-15.485 3.373l.554 41.14c4.398 2.652 9.364 5.527 14.932 8.661l-.55.31c6.14-3.452 11.551-6.586 16.289-9.461l.544-40.452c-5.085-1.275-10.59-2.427-16.284-3.571zM275.342 359.697l.545-40.478c-5.445-1.065-11.251-2.009-17.332-2.883-5.784.832-11.334 1.724-16.549 2.726l.55 40.828c5.216 1.232 11.042 2.463 17.538 3.755-.525-.104-1.03-.207-1.547-.311 6.211-1.245 11.789-2.439 16.795-3.637zM258.547 479.949c.073-.028.148-.059.221-.086a367.86 367.86 0 0 1-14.526 5.176l.068 5.018c.108 8.008 6.63 14.443 14.639 14.443 8.008 0 14.531-6.435 14.639-14.443l.064-4.754a371.012 371.012 0 0 1-15.105-5.354z"/><path style="fill:#db8128" d="M214.497 294.832c12.761-4.106 27.831-6.713 44.051-8.927-6.98-.953-14.17-1.834-21.486-2.729-25.004-3.059-50.86-6.221-69.215-12.787-23.103-8.264-22.788-17.802-22.637-22.386.345-10.482 18.699 2.247 49.086-11.142 37.22-16.4 29.543-29.263 16.958-37.062-10.082-6.248-22.162-8.625-34.048-7.344-44.888 4.838-61.92 22.244-62.987 54.585-.429 13.005 3.881 24.312 12.807 33.608 7.119 7.414 16.967 13.303 30.105 18.004 10.029 3.588 21.342 6.233 33.242 8.37 6.111-4.908 14.152-8.981 24.124-12.19zM257.998 447.567l.55-.31c-29.283-16.486-42.021-25.817-42.049-33.094-.011-2.625-.025-6.594 9.503-11.088 8.261-3.897 19.937-6.461 32.546-8.993-1.543-.31-3.099-.619-4.666-.931-16.692-3.317-33.936-6.751-48.031-13.581-16.693 10.377-20.397 24.312-20.357 34.707.072 18.496 13.37 35.345 39.572 50.257 9.62-4.616 21.752-10.683 32.932-16.967zM326.721 307.021c-13.825 2.483-28.447 4.28-42.814 6.037-8.731 1.068-17.274 2.114-25.359 3.277 13.002 1.868 24.819 4.038 34.303 7.088 4.707 1.514 17.212 5.538 17.212 12.586 0 14.511-15.222 20.046-51.515 27.325l1.547.311c15.614 3.103 31.76 6.31 44.541 12.338a64.823 64.823 0 0 1 6.609 3.589c.233-.113.473-.219.704-.334 24.067-11.942 29.118-30.099 29.118-43.227 0-11.647-4.815-21.335-14.346-28.99zM299.539 468.092a762.195 762.195 0 0 1-7.509-3.556c-6.503 3.702-13.789 7.285-21.88 10.744a306.214 306.214 0 0 1-11.603 4.67c12.526 4.76 24.14 8.316 32.145 10.571 6.149 1.732 12.641-1.354 14.998-7.136 2.396-5.88-.285-12.556-6.151-15.293z"/><path style="fill:#ffae47" d="M322.798 236.861c30.387 13.389 48.741.66 49.086 11.142.151 4.584.466 14.12-22.637 22.386-18.356 6.566-44.21 9.73-69.215 12.787-24.317 2.975-47.284 5.784-65.537 11.657-25.525 8.213-38.468 22.068-38.468 41.177 0 13.128 5.052 31.285 29.118 43.227 14.222 7.058 31.768 10.544 48.736 13.915 14.368 2.854 27.94 5.551 37.212 9.925 9.528 4.494 9.514 8.461 9.503 11.087-.028 7.322-12.919 16.722-42.599 33.404-14.35 8.066-30.29 15.786-40.442 20.523-5.866 2.738-8.547 9.415-6.151 15.293 2.356 5.782 8.848 8.867 14.998 7.136 10.441-2.94 27.01-8.087 43.748-15.242 40.687-17.391 61.362-37.914 61.451-61 .045-11.647-4.597-27.746-26.966-38.294-12.781-6.028-28.928-9.236-44.541-12.338-37.419-7.434-53.062-12.917-53.062-27.635 0-7.048 12.505-11.072 17.212-12.586 15.381-4.949 36.89-7.579 59.662-10.366 26.733-3.27 54.375-6.651 76.056-14.407 13.138-4.7 22.986-10.589 30.105-18.003 8.926-9.296 13.235-20.602 12.807-33.608-1.066-32.341-18.098-49.747-62.987-54.585-11.886-1.281-23.966 1.096-34.048 7.344-12.583 7.798-20.26 20.66 16.959 37.061zM239.261 116.159c-11.189.626-25.682-.67-32.183-10.21-11.337-16.636-37.947-68.583-91.19-50.753-58.978 19.75-101.542 76.196-97.419 91.853s49.296 5.096 49.296 5.096 24.02 29.392 59.386 10.029c0 0 38.841 29.459 60.501-8.59 0 0 31.133 12.6 51.978-10.02l-.369-27.405z"/><path style="fill:#f4932a" d="M207.078 105.949c-10.789-15.831-35.41-63.634-83.648-52.859 30.997 7.577 49.009 39.292 55.587 52.859 13.729 28.313 49.424 38.242 60.613 37.615l-.369-27.407c-11.188.628-25.682-.669-32.183-10.208z"/><path style="fill:#ffae47" d="M396.081 55.196c-53.243-17.83-79.852 34.117-91.19 50.753-5.397 7.919-16.306 10.156-26.257 10.33l-.439 32.581c20.347 15.157 46.122 4.724 46.122 4.724 21.662 38.048 60.502 8.59 60.502 8.59 35.366 19.362 59.386-10.029 59.386-10.029s45.174 10.561 49.296-5.096-38.442-72.102-97.42-91.853z"/><path style="fill:#f4932a" d="M396.081 55.196c-21.983-7.361-39.421-2.823-53.123 6.207 7.618-.514 15.961.491 25.086 3.547 57.298 19.187 99.098 73.003 97.654 90.412 12.274.891 25.647-.128 27.803-8.313 4.122-15.657-38.442-72.102-97.42-91.853z"/><circle style="fill:#f2ca5a" cx="258.949" cy="54.876" r="47.378"/><path style="fill:#ffae47" d="M258.948 7.501c-4.875 0-9.577.738-14.002 2.105 19.329 5.972 33.373 23.98 33.373 45.27s-14.044 39.298-33.373 45.27a47.374 47.374 0 0 0 14.002 2.105c26.164 0 47.375-21.211 47.375-47.375S285.112 7.501 258.948 7.501z"/><path style="fill:#f2ca5a" d="M258.948 102.251a47.175 47.175 0 0 1-19.933-4.398l2.516 185.87c5.775.71 11.464 1.423 17.017 2.181 5.809-.794 11.766-1.537 17.819-2.28l2.514-185.771a47.163 47.163 0 0 1-19.933 4.398z"/><path style="fill:#ffae47" d="m258.547 394.083-.087.018-.553 52.793c.218.123.421.24.641.363l-.55.31c6.14-3.452 11.551-6.586 16.289-9.461l.544-40.452c-5.085-1.275-10.59-2.427-16.284-3.571zM258.607 363.347l1.488.298-1.488-.298zM259.275 316.442l-.668 46.879c6.186-1.241 11.746-2.431 16.735-3.625l.545-40.478c-5.227-1.021-10.795-1.931-16.612-2.776zM261.82 102.16l-2.456 181.465v2.28c5.809-.794 10.95-1.537 17.003-2.28l2.514-185.771a47.139 47.139 0 0 1-17.061 4.306z"/><path d="M473.909 97.508c-12.454-13.193-38.817-37.159-75.447-49.425-23.304-7.804-44.824-4.4-63.964 10.118-15.314 11.614-25.562 27.619-32.343 38.208-1.323 2.066-2.466 3.852-3.465 5.316-2.512 3.688-7.385 5.516-12.447 6.375l.077-5.693c16.422-9.495 27.504-27.238 27.504-47.531C313.824 24.617 289.207 0 258.948 0c-30.259 0-54.876 24.617-54.876 54.876 0 20.294 11.082 38.037 27.504 47.531l.085 6.306c-6.965-.322-14.911-1.894-18.384-6.989-.996-1.463-2.139-3.248-3.463-5.314-6.781-10.591-17.029-26.595-32.342-38.209-19.142-14.519-40.663-17.921-63.966-10.119-9.206 3.084-18.441 7.164-27.452 12.13a7.5 7.5 0 0 0-2.948 10.19 7.5 7.5 0 0 0 10.19 2.948c8.221-4.531 16.624-8.246 24.975-11.044 42.728-14.31 66.266 22.446 78.91 42.192 1.385 2.163 2.581 4.031 3.7 5.672 5.74 8.423 16.369 13.051 30.982 13.569l.226 16.77c-16.917 15.641-40.605 6.52-41.62 6.118a7.499 7.499 0 0 0-9.333 3.243c-4.931 8.66-10.933 13.619-18.348 15.161-14.956 3.103-30.957-8.728-31.102-8.836a7.502 7.502 0 0 0-8.135-.603c-29.287 16.038-49.166-7.225-49.976-8.196a7.508 7.508 0 0 0-7.516-2.557c-.107.025-10.792 2.5-21.828 3.14-14.389.833-18.306-2.076-18.505-2.833-.411-1.81 1.566-9.505 10.3-21.733 8.926-12.5 21.558-25.247 35.565-35.893a7.501 7.501 0 1 0-9.078-11.944c-32.446 24.659-55.458 57.579-51.297 73.383 2.746 10.431 14.148 15.141 33.882 13.998 7.946-.46 15.588-1.74 20.137-2.62 3.175 3.027 8.557 7.462 15.758 10.866 10.358 4.896 26.424 8.559 45.643-.364 5.955 3.654 17.814 9.71 31.014 9.709a40.307 40.307 0 0 0 8.091-.804c10.04-2.058 18.482-7.865 25.159-17.288 8.794 2.271 25.701 4.735 41.439-3.768l.454 33.524c.056 4.143 3.468 7.458 7.602 7.399a7.5 7.5 0 0 0 7.398-7.602l-1.132-83.638c.233.053.47.09.704.14.462.1.927.19 1.393.278.472.089.943.178 1.418.254.559.09 1.124.164 1.689.237.384.049.767.105 1.152.147.766.083 1.539.143 2.314.193.197.013.393.034.59.045a55.28 55.28 0 0 0 3.029.087c1.016 0 2.025-.033 3.029-.087.197-.011.393-.032.59-.045a56.808 56.808 0 0 0 2.314-.193c.385-.041.768-.097 1.152-.147.565-.073 1.13-.147 1.689-.237.475-.076.946-.165 1.418-.254a53.59 53.59 0 0 0 1.393-.278c.234-.05.471-.087.704-.14l-2.282 168.613a896.893 896.893 0 0 0-4.573.582l-1.921.25c-1.101.144-2.198.29-3.291.436l-.622.083c-.909-.123-1.822-.242-2.734-.362-.646-.085-1.287-.172-1.935-.256-1.651-.215-3.3-.425-4.933-.631l-.774-57.169a7.5 7.5 0 0 0-7.498-7.399l-.104.001a7.5 7.5 0 0 0-7.398 7.602l.746 55.113c-23.306-2.862-46.932-5.967-63.541-11.908-10.536-3.769-14.743-7.414-16.418-9.809-.664-.95-.992-1.786-1.146-2.612 1.1-.017 2.441.035 3.612.067 8.602.238 23.008.637 40.901-7.246 20.916-9.217 31.007-18.499 31.757-29.214.382-5.462-1.714-13.554-13.872-21.089-11.176-6.927-24.958-9.918-38.804-8.426-46.948 5.06-68.438 24.119-69.68 61.796-.498 15.102 4.514 28.24 14.894 39.051 7.941 8.27 18.732 14.77 32.989 19.871 6.224 2.226 13.238 4.217 21.211 6.022-4.487 6.557-7.289 14.546-7.289 24.274 0 18.178 8.405 33.64 23.91 44.427-11.755 11.146-14.481 24.13-14.444 33.87.071 18.332 10.873 35.013 32.126 49.707-6.402 5.31-8.908 14.23-5.66 22.201 3.097 7.598 10.486 12.294 18.439 12.294 1.83 0 3.692-.249 5.537-.769 2.69-.758 5.723-1.643 9.009-2.651 2.373 9.676 11.156 16.911 21.505 16.911 10.269 0 18.996-7.122 21.45-16.685 3.09.942 5.877 1.753 8.262 2.424 1.846.52 3.706.769 5.537.769 7.953 0 15.344-4.697 18.44-12.294 3.251-7.975.739-16.903-5.673-22.211 21.277-14.716 32.067-31.352 32.139-49.697.033-8.401-2.175-22.085-14.475-33.848 15.524-10.789 23.941-26.259 23.941-44.449 0-9.075-2.448-17.192-7.27-24.276 7.436-1.685 14.562-3.649 21.192-6.02a124.394 124.394 0 0 0 7.905-3.127 7.503 7.503 0 0 0-6.011-13.747 109.78 109.78 0 0 1-6.948 2.747c-9.578 3.427-20.491 5.975-32.032 8.048l-.009.001c-3.433.616-6.915 1.19-10.43 1.73l-.029.005c-1.721.265-3.451.521-5.185.771l-.184.026c-1.672.241-3.35.475-5.03.704l-.356.049c-1.618.22-3.239.435-4.859.646l-.512.067c-1.573.205-3.148.405-4.719.603l-.622.079c-1.572.198-3.142.392-4.708.585l-.581.072c-1.733.214-3.463.425-5.184.636l-5.455.669-1.437.177c-4.048.501-8.037 1.006-11.951 1.528l-.684.091c-6.625.89-13.013 1.837-19.048 2.909l-.064.012c-1.217.216-2.418.438-3.606.665l-.16.03-.016.004c-6.777 1.303-13.057 2.79-18.628 4.584-6.707 2.158-22.415 7.211-22.415 19.726 0 21.102 22.271 27.583 56.501 34.472.848.171 1.714.345 2.6.521l.004.001h.004c4.739.942 9.529 1.893 14.238 2.928 10.365 2.278 20.345 4.962 28.558 8.835 1.01.476 2.002.979 2.971 1.504l.155.088c.916.5 1.811 1.019 2.677 1.556 11.232 6.957 16.908 16.46 16.862 28.333-.061 15.598-11.943 30.2-35.372 43.565-.137.067-.276.125-.41.201-4.63 2.635-9.718 5.225-15.177 7.732-.369.169-.743.338-1.116.506-.563.255-1.126.51-1.697.764a263.375 263.375 0 0 1-5.971 2.558c-.667.276-1.346.552-2.027.828-.239.097-.479.196-.718.292-1.79.72-3.625 1.437-5.49 2.147-.006.002-.013.003-.019.006l-.004.001a358.51 358.51 0 0 1-14.228 5.069c-.01.003-.018.009-.028.012-6.623 2.203-12.622 4-17.476 5.367-2.466.697-5.106-.513-6.017-2.746-.889-2.181.133-4.617 2.378-5.665a743.603 743.603 0 0 0 7.568-3.586l.013-.005.347-.167.042-.02a717.308 717.308 0 0 0 15.585-7.719l.134-.069a612.614 612.614 0 0 0 8.488-4.426l.339-.182c.768-.41 1.537-.823 2.306-1.238l.754-.409a478.14 478.14 0 0 0 1.992-1.088l.738-.406c.882-.487 1.762-.976 2.636-1.467l.004-.002.477-.27 1.91-1.077c30.381-17.18 43.988-27.014 44.033-38.563.023-5.623-1.599-12.147-13.804-17.903-6.035-2.845-13.466-4.983-21.628-6.871l-.242-.056a367.8 367.8 0 0 0-8.25-1.791l-.027-.006c-1.361-.281-2.735-.56-4.121-.838h-.001l-.123-.025a2160.66 2160.66 0 0 0-3.978-.793l-.582-.116c-6.074-1.207-12.226-2.429-18.242-3.824l-.009-.002c-10.031-2.326-19.684-5.133-27.971-9.148l-.008-.003c-.209-.101-.425-.197-.633-.299-16.557-8.215-24.951-20.499-24.951-36.509 0-9.157 3.708-16.757 11.233-22.933.101-.073.211-.129.309-.207 4.69-3.767 10.843-7.032 18.317-9.733l.268-.095c1.022-.366 2.065-.723 3.138-1.068a129.24 129.24 0 0 1 3.031-.928c.3-.089.604-.174.906-.261.783-.225 1.573-.445 2.373-.66.277-.075.553-.15.832-.223a181.886 181.886 0 0 1 6.836-1.653l.216-.048c7.374-1.629 15.314-2.967 23.631-4.17l.71-.101c.859-.123 1.723-.244 2.59-.364l1.644-.227.007-.001.227-.031c.885-.121 1.773-.24 2.665-.359l1.391-.184c1.026-.134 2.057-.268 3.093-.401l1.215-.156a1522.26 1522.26 0 0 1 7.207-.899l1.911-.235.008-.001 3.656-.448c25.409-3.108 51.685-6.321 70.831-13.17 13.154-4.706 28.181-12.334 27.607-29.694-.184-5.576-3.274-9.63-8.478-11.121-3.042-.872-6.396-.778-10.646-.661-8.283.23-19.632.544-34.435-5.979-21.746-9.582-22.793-15.85-22.841-16.533-.1-1.421 1.637-4.084 6.81-7.289 8.349-5.175 18.752-7.399 29.292-6.262 32.97 3.553 55.159 12.969 56.292 47.374.359 10.907-3.247 20.382-10.721 28.165a7.503 7.503 0 0 0 10.822 10.391c10.38-10.811 15.392-23.949 14.893-39.051-1.241-37.677-22.732-56.737-69.68-61.796-13.845-1.49-27.626 1.5-38.803 8.426-12.158 7.534-14.254 15.627-13.872 21.089.75 10.715 10.842 19.997 31.757 29.214 17.898 7.885 32.301 7.486 40.901 7.246 1.17-.032 2.473-.08 3.612-.067-.153.824-.482 1.661-1.146 2.612-1.674 2.394-5.882 6.04-16.418 9.809-16.416 5.872-39.688 8.973-62.739 11.809l1.54-113.818c13.941 5.221 27.852 3.111 35.544 1.133 6.678 9.427 15.121 15.235 25.162 17.293 2.727.559 5.437.804 8.092.804 13.199 0 25.06-6.055 31.015-9.709 19.217 8.923 35.284 5.26 45.642.364 7.2-3.403 12.583-7.838 15.758-10.866 4.55.88 12.191 2.16 20.137 2.62 19.743 1.139 31.135-3.568 33.882-13.999 3.488-13.255-11.582-35.266-26.85-51.441zM219.074 54.876c0-21.987 17.888-39.874 39.874-39.874s39.874 17.887 39.874 39.874c0 16.237-9.761 30.228-23.717 36.44-.335.149-.671.297-1.009.436a44.495 44.495 0 0 1-1.9.726 39.412 39.412 0 0 1-3.007.932c-.279.074-.56.142-.84.21-.388.094-.777.188-1.17.271-.274.058-.549.106-.824.158-.398.075-.795.151-1.197.214-.294.046-.591.081-.887.12-.383.051-.765.106-1.152.147-.371.038-.744.062-1.116.09-.316.024-.63.056-.949.072a40.82 40.82 0 0 1-2.103.056c-.704 0-1.405-.02-2.103-.056-.318-.017-.632-.048-.948-.072-.373-.028-.746-.052-1.117-.09-.386-.04-.768-.095-1.151-.147-.296-.039-.593-.074-.887-.12-.402-.063-.799-.139-1.197-.214-.275-.052-.55-.101-.824-.158a38.18 38.18 0 0 1-1.17-.271c-.281-.068-.561-.135-.84-.21a40.475 40.475 0 0 1-1.097-.312 38.052 38.052 0 0 1-2.892-.983 42.833 42.833 0 0 1-.92-.363 38.776 38.776 0 0 1-1.008-.436c-13.962-6.212-23.723-20.203-23.723-36.44zm114.492 281.133c0 15.069-7.436 26.836-22.113 35.016-.096-.052-.198-.097-.294-.149a75.648 75.648 0 0 0-3.323-1.678 87.566 87.566 0 0 0-3.518-1.553 103.858 103.858 0 0 0-4.481-1.765l-.14-.049c-1.195-.436-2.409-.85-3.633-1.253-.305-.1-.611-.201-.917-.299-1.255-.404-2.52-.797-3.801-1.171l-.054-.017c16.502-5.466 26.27-12.982 26.27-27.08 0-9.465-8.983-14.662-16.266-17.567l.242-.032a863.71 863.71 0 0 0 5.426-.725l.348-.048c1.881-.258 3.758-.523 5.629-.796l.005-.001a487.48 487.48 0 0 0 11.55-1.812c6.097 5.805 9.07 12.698 9.07 20.979zm-83.974-10.69c2.764-.467 5.736-.932 8.956-1.402l1.066.156a500.266 500.266 0 0 1 2.466.372l1.107.171c.41.064.811.129 1.214.193.453.073.906.145 1.35.218l.762.127c.589.098 1.176.196 1.749.294l.036.006-.38 28.237a503.679 503.679 0 0 1-9.382 1.988 536 536 0 0 1-8.561-1.804l-.383-28.556zm40.96 5.246c9.126 2.936 11.43 5.033 12.001 5.829-.17 5.064-3.876 8.966-19.578 13.526l.288-21.405c2.659.659 5.083 1.339 7.289 2.05zm-76.01 5.826c.574-.797 2.881-2.892 12-5.827 2.511-.808 5.225-1.549 8.087-2.244l.294 21.849c-14.804-4.219-20.152-8.188-20.381-13.778zm51.501 154.255c-.397 3.56-3.445 6.352-7.096 6.352-3.741 0-6.849-2.931-7.12-6.617a368.502 368.502 0 0 0 6.721-2.419l.22.08c1.07.396 2.128.781 3.18 1.158l.519.186c1.164.416 2.315.822 3.45 1.215l.126.045zm26.246-17.677a711.84 711.84 0 0 0 4.077 1.918l.001.001c2.244 1.047 3.267 3.482 2.377 5.665-.91 2.233-3.553 3.441-6.017 2.746a386.587 386.587 0 0 1-13.199-3.974c.261-.12.514-.242.774-.363a271.088 271.088 0 0 0 5.135-2.459c.72-.356 1.429-.714 2.135-1.072.4-.203.805-.406 1.2-.61 1.192-.613 2.368-1.23 3.517-1.852zm-99.295-58.72c-.041-10.618 4.522-19.384 13.574-26.106l.064.026c4.62 1.98 9.46 3.66 14.433 5.126l.405.118c1.606.47 3.223.924 4.853 1.354a61.965 61.965 0 0 0-3.523 1.524c-12.205 5.756-13.826 12.28-13.804 17.901.034 8.857 7.563 16.789 30.607 30.731.047.03.089.066.137.095 1.1.664 2.255 1.35 3.44 2.049l-.061.033-.682.356c-.653.341-1.305.682-1.953 1.018l-.949.49-1.694.871-.934.477c-.583.298-1.164.592-1.741.884l-.791.4c-.69.348-1.373.691-2.05 1.029l-.413.207a749.127 749.127 0 0 1-5.259 2.597c-.424.208-.836.407-1.251.609-21.451-12.936-32.35-26.984-32.408-41.789zm74.256-10.676-.408 30.249-.273.162-.568.335-1.613.948-.501.292-1.747 1.015-.538.311c-.575.332-1.161.669-1.756 1.009l-.684.391-.612.348c-.459-.262-.925-.526-1.373-.783a551.406 551.406 0 0 1-6.115-3.554l-.416-30.901.285-.063a371.17 371.17 0 0 1 3.449-.74l.561-.117c1.164-.243 2.325-.481 3.473-.714l.135-.027.058.012c2.852.58 5.773 1.187 8.643 1.827zm-31.557 3.757.235 17.465a118.364 118.364 0 0 1-3.469-2.472c-7.314-5.439-8.34-7.928-8.461-8.306-.001-.284-.002-.61-.001-.659.006-.014.787-1.414 5.203-3.497 1.922-.906 4.113-1.745 6.493-2.531zm57.381 5.955c.021.115.022.447.022.732-.121.38-1.158 2.895-8.585 8.399-.791.586-1.635 1.193-2.535 1.821l.224-16.642c2.067.708 3.982 1.457 5.695 2.264 4.323 2.041 5.162 3.426 5.179 3.426zM132.438 275.451c-7.474-7.782-11.08-17.258-10.721-28.165.819-24.882 10.707-42.461 56.292-47.374a50.236 50.236 0 0 1 5.38-.29c8.654 0 16.989 2.262 23.912 6.552 5.173 3.206 6.909 5.867 6.81 7.289-.048.683-1.095 6.951-22.841 16.533-14.803 6.523-26.149 6.208-34.435 5.979-4.247-.117-7.602-.211-10.646.661-5.205 1.491-8.295 5.545-8.479 11.12-.301 9.12 2.564 20.736 27.608 29.695 13.209 4.726 29.813 7.72 47.182 10.144l-.303.097c-.998.321-2.006.665-3.021 1.023-.214.075-.429.149-.641.225-.792.285-1.587.585-2.384.894-.493.19-.98.383-1.463.578-.128.052-.257.107-.385.16-6.001 2.45-11.301 5.279-15.809 8.474-11.438-2.17-20.897-4.619-28.837-7.458-12.019-4.301-20.923-9.579-27.219-16.137zm353.808-130.312c-.2.758-4.094 3.651-18.35 2.849-11.037-.621-21.88-3.124-21.985-3.148a7.511 7.511 0 0 0-7.516 2.557c-.049.061-5.175 6.151-13.827 10.241-11.544 5.456-23.703 4.769-36.148-2.044a7.532 7.532 0 0 0-8.119.591c-.16.12-16.161 11.958-31.119 8.847-7.415-1.54-13.416-6.5-18.347-15.16a7.503 7.503 0 0 0-9.332-3.242c-.206.083-19.512 7.699-35.752-1.756l.29-21.58c11.657-1.409 20.064-5.808 25.048-13.122 1.118-1.641 2.315-3.51 3.701-5.673C327.434 84.755 350.964 48 393.698 62.31c33.36 11.171 57.576 33.13 69.043 45.225 18.044 19.032 24.296 34.117 23.505 37.604z"/></svg>